<svg width="60" height="60" viewBox="0 0 60 60" fill="none" xmlns="http://www.w3.org/2000/svg">
<path d="M30.72 19.7695H26.4336V28.2202H33.1773V31.7584H26.4336V40.2085H30.93C32.0853 40.2085 40.4148 40.339 40.4019 30.3769C40.389 20.4148 32.3232 19.7695 30.72 19.7695Z" fill="#C2A633"/>
<path d="M30 0C13.4313 0 0 13.4313 0 30C0 46.5687 13.4313 60 30 60C46.5687 60 60 46.5687 60 30C60 13.4313 46.5687 0 30 0ZM31.1787 46.203H20.3142V31.7592H16.4844V28.221H20.3139V13.7763H29.6385C31.8444 13.7763 46.4553 13.3182 46.4553 30.2607C46.4553 47.4834 31.179 46.203 31.179 46.203H31.1787Z" fill="#C2A633"/>
</svg>
